<?xml version="1.0" encoding="UTF-8" standalone="no"?>
<!-- Created with Inkscape (http://www.inkscape.org/) -->

<svg
   xmlns:dc="http://purl.org/dc/elements/1.1/"
   xmlns:cc="http://creativecommons.org/ns#"
   xmlns:rdf="http://www.w3.org/1999/02/22-rdf-syntax-ns#"
   xmlns:svg="http://www.w3.org/2000/svg"
   xmlns="http://www.w3.org/2000/svg"
   xmlns:sodipodi="http://sodipodi.sourceforge.net/DTD/sodipodi-0.dtd"
   xmlns:inkscape="http://www.inkscape.org/namespaces/inkscape"
   version="1.1"
   id="svg2"
   width="80"
   height="80"
   viewBox="0 0 80 80"
   sodipodi:docname="backloggery-logo.svg"
   inkscape:version="0.92.3 (2405546, 2018-03-11)">
  <metadata
     id="metadata8">
    <rdf:RDF>
      <cc:Work
         rdf:about="">
        <dc:format>image/svg+xml</dc:format>
        <dc:type
           rdf:resource="http://purl.org/dc/dcmitype/StillImage" />
        <dc:title></dc:title>
        <dc:title></dc:title>
      </cc:Work>
    </rdf:RDF>
  </metadata>
  <defs
     id="defs6">
    <clipPath
       clipPathUnits="userSpaceOnUse"
       id="clipPath3740">
      <g
         id="use3742"
         inkscape:label="Clip">
        <path
           style="fill:#ffff00;stroke-width:0.11984861"
           d="M 25.41493,39.970652 V 20.435329 h 12.10471 12.104709 v 2.322373 c 0,2.012583 0.0264,2.344314 0.197903,2.486858 0.145704,0.121101 0.785836,0.180292 2.426935,0.22441 l 2.22903,0.05992 0.0314,4.524285 0.0314,4.524285 h -2.255659 c -1.758925,0 -2.306889,0.03746 -2.488299,0.170111 -0.217894,0.159328 -0.232641,0.334679 -0.232641,2.766179 0,2.431501 0.01475,2.606851 0.232641,2.766179 0.181398,0.132642 0.729177,0.170112 2.486859,0.170112 h 2.254217 v 7.071068 7.071068 h -2.322374 c -2.013858,0 -2.344223,0.02632 -2.486858,0.198155 -0.119662,0.144155 -0.184999,0.805517 -0.239759,2.426935 -0.0414,1.225828 -0.08185,2.242261 -0.08989,2.258741 -0.008,0.01648 -5.407801,0.02996 -11.999474,0.02996 H 25.41493 Z m 19.777639,15.218154 c 0.238771,-0.238771 0.24184,-0.352827 0.209735,-7.794567 -0.02829,-6.558668 -0.05623,-7.567197 -0.212354,-7.665856 -0.105792,-0.06686 -2.257493,-0.114362 -5.228702,-0.115442 -4.551097,-0.0017 -5.065147,0.0177 -5.213414,0.196304 -0.135573,0.16331 -0.164485,1.523773 -0.164485,7.739843 0,7.327123 0.0066,7.546547 0.232641,7.71187 0.192067,0.140486 1.096111,0.170164 5.183453,0.170164 4.808848,0 4.957759,-0.007 5.193126,-0.242316 z m 0.04875,-19.960735 c 0.165196,-0.165196 0.188334,-0.802874 0.188334,-5.190508 0,-4.130948 -0.02963,-5.042693 -0.170112,-5.234815 -0.163723,-0.223904 -0.359376,-0.232642 -5.209134,-0.232642 -4.677663,0 -5.05437,0.01535 -5.253038,0.214015 -0.198668,0.198668 -0.214015,0.575375 -0.214015,5.253038 0,4.849758 0.0087,5.045411 0.232641,5.209134 0.192123,0.140484 1.103868,0.170112 5.234816,0.170112 4.387634,0 5.025312,-0.02314 5.190508,-0.188334 z"
           id="path3757"
           inkscape:connector-curvature="0" />
      </g>
    </clipPath>
  </defs>
  <sodipodi:namedview
     pagecolor="#ffffff"
     bordercolor="#666666"
     borderopacity="1"
     objecttolerance="10"
     gridtolerance="10"
     guidetolerance="10"
     inkscape:pageopacity="0"
     inkscape:pageshadow="2"
     inkscape:window-width="1920"
     inkscape:window-height="1032"
     id="namedview4"
     showgrid="false"
     inkscape:zoom="4.17193"
     inkscape:cx="63.126569"
     inkscape:cy="29.36475"
     inkscape:window-x="0"
     inkscape:window-y="24"
     inkscape:window-maximized="1"
     inkscape:current-layer="svg2" />
  <path
     style="fill:#000000;stroke-width:0.11984861"
     d="M 27.827375,38.614802 V 19.07948 h 12.10471 12.104709 v 2.322373 c 0,2.012244 0.02642,2.344338 0.197836,2.486858 0.148399,0.123383 0.762351,0.173789 2.456897,0.201712 l 2.25906,0.03723 v 4.546982 4.546983 H 54.69637 c -1.757682,0 -2.305461,0.03747 -2.486859,0.170111 -0.217894,0.159328 -0.232641,0.334679 -0.232641,2.766179 0,2.431501 0.01475,2.606851 0.232641,2.766179 0.181398,0.132642 0.729177,0.170112 2.486859,0.170112 h 2.254217 v 7.071068 7.071068 h -2.322374 c -2.013096,0 -2.344277,0.02637 -2.486858,0.198004 -0.123023,0.148092 -0.174868,0.767414 -0.205674,2.456897 l -0.04119,2.258892 H 39.860934 27.827375 Z m 19.77502,15.220773 c 0.234578,-0.234577 0.239698,-0.399495 0.239698,-7.721674 0,-6.641999 -0.02114,-7.503121 -0.188334,-7.670311 -0.165276,-0.165277 -0.80907,-0.188334 -5.258663,-0.188334 -4.570191,0 -5.086556,0.01955 -5.234817,0.198192 -0.135572,0.163357 -0.164485,1.523856 -0.164485,7.739898 0,7.327139 0.0066,7.546542 0.232641,7.711814 0.192032,0.140417 1.096865,0.170112 5.183453,0.170112 4.791012,0 4.958546,-0.0077 5.190507,-0.239697 z m 0.05136,-19.963354 c 0.165196,-0.165196 0.188334,-0.802874 0.188334,-5.190508 0,-4.130947 -0.02963,-5.042692 -0.170112,-5.234814 -0.163723,-0.223904 -0.359376,-0.232642 -5.209134,-0.232642 -4.677663,0 -5.05437,0.01535 -5.253038,0.214015 -0.198668,0.198668 -0.214015,0.575375 -0.214015,5.253037 0,4.849758 0.0087,5.045411 0.232641,5.209134 0.192123,0.140484 1.103868,0.170112 5.234816,0.170112 4.387634,0 5.025312,-0.02314 5.190508,-0.188334 z"
     id="path3731"
     inkscape:connector-curvature="0" />
</svg>
